<svg version="1.1" viewBox="0.0 0.0 738.7401574803149 441.0288713910761" fill="none" stroke="none" stroke-linecap="square" stroke-miterlimit="10" xmlns:xlink="http://www.w3.org/1999/xlink" xmlns="http://www.w3.org/2000/svg"><clipPath id="p.0"><path d="m0 0l738.7402 0l0 441.02887l-738.7402 0l0 -441.02887z" clip-rule="nonzero"/></clipPath><g clip-path="url(#p.0)"><path fill="#000000" fill-opacity="0.0" d="m0 0l738.7402 0l0 441.02887l-738.7402 0z" fill-rule="evenodd"/><defs><linearGradient id="p.1" gradientUnits="userSpaceOnUse" gradientTransform="matrix(-11.298386756837747 0.0 0.0 -11.298386756837747 0.0 0.0)" spreadMethod="pad" x1="-63.19463041004283" y1="-0.4692561322644184" x2="-51.89624365320509" y2="-0.4692561322644184"><stop offset="0.0" stop-color="#f4cccc" stop-opacity="0.0"/><stop offset="1.0" stop-color="#f4cccc"/></linearGradient></defs><path fill="url(#p.1)" d="m713.9974 353.67978l-127.653564 0l0 -348.37793l127.653564 0z" fill-rule="evenodd"/><defs><linearGradient id="p.2" gradientUnits="userSpaceOnUse" gradientTransform="matrix(11.298386756837747 0.0 0.0 11.298386756837747 0.0 0.0)" spreadMethod="pad" x1="18.00387104288351" y1="31.303565512324212" x2="29.30225779972126" y2="31.303565512324212"><stop offset="0.0" stop-color="#f4cccc" stop-opacity="0.0"/><stop offset="1.0" stop-color="#f4cccc"/></linearGradient></defs><path fill="url(#p.2)" d="m203.4147 5.3018374l127.653534 0l0 348.37793l-127.653534 0z" fill-rule="evenodd"/><defs><linearGradient id="p.3" gradientUnits="userSpaceOnUse" gradientTransform="matrix(6.091377869691505 0.0 0.0 6.091377869691505 0.0 0.0)" spreadMethod="pad" x1="33.28738750868286" y1="0.8703839071815318" x2="27.19600963915121" y2="0.8703397774281546"><stop offset="0.0" stop-color="#e06666" stop-opacity="0.0"/><stop offset="1.0" stop-color="#e06666"/></linearGradient></defs><path fill="url(#p.3)" d="m165.66118 5.3018374l37.102356 0l0 348.37793l-37.102356 0z" fill-rule="evenodd"/><path fill="#e06666" d="m129.20998 5.3018374l37.102356 0l0 348.37793l-37.102356 0z" fill-rule="evenodd"/><path fill="#f4cccc" d="m331.06824 5.3018374l258.99213 0l0 348.37793l-258.99213 0z" fill-rule="evenodd"/><path fill="#000000" fill-opacity="0.0" d="m166.31233 319.8058l74.20473 0l0 92.47244l-74.20473 0z" fill-rule="evenodd"/><path fill="#000000" fill-opacity="0.0" d="m586.3438 319.8058l255.27563 0l0 92.47244l-255.27563 0z" fill-rule="evenodd"/><path fill="#000000" fill-opacity="0.0" d="m166.31233 54.7979l37.10237 265.00787" fill-rule="evenodd"/><path stroke="#000000" stroke-width="3.0" stroke-linejoin="round" stroke-linecap="butt" d="m166.31233 54.7979l37.10237 265.00787" fill-rule="evenodd"/><path fill="#000000" fill-opacity="0.0" d="m203.4147 319.8058l127.653534 -69.133865" fill-rule="evenodd"/><path stroke="#000000" stroke-width="3.0" stroke-linejoin="round" stroke-linecap="butt" d="m203.4147 319.8058l127.653534 -69.133865" fill-rule="evenodd"/><path fill="#000000" fill-opacity="0.0" d="m331.0525 250.6811l255.30707 0" fill-rule="evenodd"/><path stroke="#000000" stroke-width="3.0" stroke-linejoin="round" stroke-linecap="butt" d="m331.0525 250.6811l255.30707 0" fill-rule="evenodd"/><path fill="#000000" fill-opacity="0.0" d="m586.3438 250.68242l127.653564 69.133865" fill-rule="evenodd"/><path stroke="#000000" stroke-width="3.0" stroke-linejoin="round" stroke-linecap="butt" d="m586.3438 250.68242l127.653564 69.133865" fill-rule="evenodd"/><path fill="#000000" fill-opacity="0.0" d="m129.20998 54.7979l74.20473 0l0 92.47244l-74.20473 0z" fill-rule="evenodd"/><path fill="#000000" fill-opacity="0.0" d="m92.10761 54.7979l74.20472 0l0 92.47244l-74.20472 0z" fill-rule="evenodd"/><path fill="#000000" fill-opacity="0.0" d="m129.20998 54.7979l37.102356 0" fill-rule="evenodd"/><path stroke="#000000" stroke-width="3.0" stroke-linejoin="round" stroke-linecap="butt" d="m129.20998 54.7979l37.102356 0" fill-rule="evenodd"/><path fill="#000000" fill-opacity="0.0" d="m376.14755 153.82939l166.04721 0l0 38.771652l-166.04721 0z" fill-rule="evenodd"/><path fill="#000000" d="m445.36758 178.18939l-1.203125 0q-0.203125 0 -0.34375 -0.09375q-0.125 -0.109375 -0.1875 -0.28125l-1.0625 -2.765625l-5.15625 0l-1.0625 2.765625q-0.0625 0.15625 -0.203125 0.265625q-0.125 0.109375 -0.328125 0.109375l-1.203125 0l4.578125 -11.46875l1.578125 0l4.59375 11.46875zm-7.515625 -4.25l4.28125 0l-1.796875 -4.671875q-0.1875 -0.4375 -0.34375 -1.078125q-0.09375 0.328125 -0.1875 0.609375q-0.078125 0.265625 -0.15625 0.484375l-1.796875 4.65625zm8.739258 4.25l0 -8.109375l0.84375 0q0.296875 0 0.390625 0.296875l0.109375 0.890625q0.53125 -0.59375 1.171875 -0.953125q0.65625 -0.359375 1.515625 -0.359375q0.65625 0 1.15625 0.21875q0.515625 0.21875 0.859375 0.625q0.34375 0.40625 0.515625 0.984375q0.171875 0.5625 0.171875 1.25l0 5.15625l-1.421875 0l0 -5.15625q0 -0.921875 -0.421875 -1.421875q-0.421875 -0.515625 -1.28125 -0.515625q-0.625 0 -1.171875 0.3125q-0.546875 0.296875 -1.015625 0.8125l0 5.96875l-1.421875 0zm8.895874 0l0 -8.109375l0.84375 0q0.296875 0 0.390625 0.296875l0.109375 0.890625q0.53125 -0.59375 1.171875 -0.953125q0.65625 -0.359375 1.515625 -0.359375q0.65625 0 1.15625 0.21875q0.515625 0.21875 0.859375 0.625q0.34375 0.40625 0.515625 0.984375q0.171875 0.5625 0.171875 1.25l0 5.15625l-1.421875 0l0 -5.15625q0 -0.921875 -0.421875 -1.421875q-0.421875 -0.515625 -1.28125 -0.515625q-0.625 0 -1.171875 0.3125q-0.546875 0.296875 -1.015625 0.8125l0 5.96875l-1.421875 0zm12.09903 -8.234375q0.734375 0 1.34375 0.25q0.609375 0.234375 1.0625 0.703125q0.453125 0.453125 0.703125 1.140625q0.25 0.671875 0.25 1.53125q0 0.34375 -0.078125 0.453125q-0.0625 0.109375 -0.265625 0.109375l-5.390625 0q0.015625 0.765625 0.203125 1.34375q0.203125 0.5625 0.53125 0.9375q0.34375 0.375 0.796875 0.5625q0.46875 0.1875 1.046875 0.1875q0.53125 0 0.921875 -0.109375q0.390625 -0.125 0.671875 -0.265625q0.28125 -0.15625 0.46875 -0.28125q0.1875 -0.125 0.3125 -0.125q0.1875 0 0.28125 0.140625l0.390625 0.515625q-0.25 0.328125 -0.625 0.5625q-0.375 0.234375 -0.796875 0.390625q-0.40625 0.140625 -0.859375 0.21875q-0.453125 0.078125 -0.890625 0.078125q-0.84375 0 -1.546875 -0.28125q-0.703125 -0.28125 -1.21875 -0.828125q-0.515625 -0.546875 -0.8125 -1.359375q-0.28125 -0.8125 -0.28125 -1.859375q0 -0.84375 0.25 -1.578125q0.265625 -0.734375 0.75 -1.265625q0.5 -0.546875 1.203125 -0.859375q0.703125 -0.3125 1.578125 -0.3125zm0.03125 1.046875q-1.03125 0 -1.625 0.609375q-0.59375 0.59375 -0.734375 1.640625l4.40625 0q0 -0.5 -0.140625 -0.90625q-0.125 -0.40625 -0.390625 -0.703125q-0.265625 -0.3125 -0.65625 -0.46875q-0.375 -0.171875 -0.859375 -0.171875zm11.102631 7.1875l-0.640625 0q-0.203125 0 -0.328125 -0.0625q-0.125 -0.0625 -0.171875 -0.28125l-0.15625 -0.75q-0.328125 0.296875 -0.640625 0.53125q-0.296875 0.21875 -0.640625 0.375q-0.328125 0.15625 -0.703125 0.234375q-0.375 0.078125 -0.84375 0.078125q-0.46875 0 -0.890625 -0.125q-0.40625 -0.140625 -0.71875 -0.390625q-0.296875 -0.265625 -0.484375 -0.671875q-0.171875 -0.40625 -0.171875 -0.96875q0 -0.46875 0.265625 -0.90625q0.265625 -0.453125 0.84375 -0.796875q0.59375 -0.34375 1.546875 -0.5625q0.953125 -0.21875 2.328125 -0.25l0 -0.640625q0 -0.9375 -0.40625 -1.421875q-0.40625 -0.484375 -1.1875 -0.484375q-0.53125 0 -0.890625 0.140625q-0.34375 0.125 -0.609375 0.296875q-0.25 0.15625 -0.453125 0.296875q-0.1875 0.125 -0.359375 0.125q-0.15625 0 -0.265625 -0.078125q-0.09375 -0.078125 -0.15625 -0.1875l-0.265625 -0.453125q0.671875 -0.65625 1.453125 -0.96875q0.78125 -0.328125 1.71875 -0.328125q0.671875 0 1.203125 0.234375q0.53125 0.21875 0.890625 0.625q0.359375 0.390625 0.546875 0.96875q0.1875 0.5625 0.1875 1.234375l0 5.1875zm-3.703125 -0.875q0.375 0 0.6875 -0.078125q0.3125 -0.078125 0.578125 -0.203125q0.28125 -0.140625 0.53125 -0.34375q0.265625 -0.203125 0.5 -0.453125l0 -1.6875q-0.984375 0.03125 -1.671875 0.15625q-0.6875 0.109375 -1.125 0.3125q-0.421875 0.203125 -0.625 0.484375q-0.1875 0.265625 -0.1875 0.59375q0 0.328125 0.09375 0.5625q0.109375 0.234375 0.28125 0.375q0.171875 0.140625 0.40625 0.21875q0.25 0.0625 0.53125 0.0625zm7.440033 -10.90625l0 11.78125l-1.421875 0l0 -11.78125l1.421875 0z" fill-rule="nonzero"/><path fill="#000000" fill-opacity="0.0" d="m65.20266 153.82939l166.04724 0l0 38.771652l-166.04724 0z" fill-rule="evenodd"/><path fill="#000000" d="m138.67374 174.04877q0.109375 0.1875 0.1875 0.40625q0.09375 0.203125 0.171875 0.421875q0.078125 -0.21875 0.15625 -0.421875q0.09375 -0.203125 0.21875 -0.421875l3.875 -7.046875q0.109375 -0.1875 0.21875 -0.21875q0.109375 -0.046875 0.3125 -0.046875l1.140625 0l0 11.46875l-1.359375 0l0 -8.421875q0 -0.171875 0 -0.359375q0.015625 -0.1875 0.03125 -0.390625l-3.921875 7.15625q-0.203125 0.375 -0.5625 0.375l-0.21875 0q-0.359375 0 -0.5625 -0.375l-4.015625 -7.1875q0.03125 0.21875 0.03125 0.421875q0.015625 0.1875 0.015625 0.359375l0 8.421875l-1.359375 0l0 -11.46875l1.140625 0q0.21875 0 0.328125 0.046875q0.109375 0.03125 0.21875 0.21875l3.953125 7.0625l0 0zm12.063568 -4.09375q0.734375 0 1.34375 0.25q0.609375 0.234375 1.0625 0.703125q0.453125 0.453125 0.703125 1.140625q0.25 0.671875 0.25 1.53125q0 0.34375 -0.078125 0.453125q-0.0625 0.109375 -0.265625 0.109375l-5.390625 0q0.015625 0.765625 0.203125 1.34375q0.203125 0.5625 0.53125 0.9375q0.34375 0.375 0.796875 0.5625q0.46875 0.1875 1.046875 0.1875q0.53125 0 0.921875 -0.109375q0.390625 -0.125 0.671875 -0.265625q0.28125 -0.15625 0.46875 -0.28125q0.1875 -0.125 0.3125 -0.125q0.1875 0 0.28125 0.140625l0.390625 0.515625q-0.25 0.328125 -0.625 0.5625q-0.375 0.234375 -0.796875 0.390625q-0.40625 0.140625 -0.859375 0.21875q-0.453125 0.078125 -0.890625 0.078125q-0.84375 0 -1.546875 -0.28125q-0.703125 -0.28125 -1.21875 -0.828125q-0.515625 -0.546875 -0.8125 -1.359375q-0.28125 -0.8125 -0.28125 -1.859375q0 -0.84375 0.25 -1.578125q0.265625 -0.734375 0.75 -1.265625q0.5 -0.546875 1.203125 -0.859375q0.703125 -0.3125 1.578125 -0.3125zm0.03125 1.046875q-1.03125 0 -1.625 0.609375q-0.59375 0.59375 -0.734375 1.640625l4.40625 0q0 -0.5 -0.140625 -0.90625q-0.125 -0.40625 -0.390625 -0.703125q-0.265625 -0.3125 -0.65625 -0.46875q-0.375 -0.171875 -0.859375 -0.171875zm6.727646 -4.59375l0 11.78125l-1.421875 0l0 -11.78125l1.421875 0zm4.9709473 11.90625q-0.96875 0 -1.484375 -0.53125q-0.515625 -0.53125 -0.515625 -1.546875l0 -4.953125l-0.96875 0q-0.125 0 -0.21875 -0.078125q-0.078125 -0.078125 -0.078125 -0.234375l0 -0.578125l1.328125 -0.15625l0.328125 -2.515625q0.015625 -0.109375 0.09375 -0.1875q0.09375 -0.078125 0.234375 -0.078125l0.71875 0l0 2.796875l2.3125 0l0 1.03125l-2.3125 0l0 4.859375q0 0.515625 0.234375 0.765625q0.25 0.234375 0.640625 0.234375q0.234375 0 0.390625 -0.046875q0.171875 -0.0625 0.28125 -0.125q0.125 -0.078125 0.203125 -0.140625q0.09375 -0.0625 0.15625 -0.0625q0.109375 0 0.203125 0.140625l0.40625 0.671875q-0.359375 0.34375 -0.890625 0.546875q-0.515625 0.1875 -1.0625 0.1875z" fill-rule="nonzero"/><path fill="#000000" fill-opacity="0.0" d="m203.4147 250.6811l255.27557 0l0 92.47243l-255.27557 0z" fill-rule="evenodd"/><path fill="#000000" fill-opacity="0.0" d="m331.06824 250.68242l510.5512 0l0 92.47243l-510.5512 0z" fill-rule="evenodd"/><path fill="#000000" fill-opacity="0.0" d="m113.67454 250.88452l274.80316 0" fill-rule="evenodd"/><path stroke="#000000" stroke-width="2.0" stroke-linejoin="round" stroke-linecap="butt" stroke-dasharray="8.0,6.0" d="m113.67454 250.88452l274.80316 0" fill-rule="evenodd"/><path fill="#000000" fill-opacity="0.0" d="m36.559055 229.87665l77.102356 0l0 42.015747l-77.102356 0z" fill-rule="evenodd"/><path fill="#000000" d="m64.36587 243.42165l0 1.53125l-4.328121 0l0 11.843735l-1.8125 0l0 -11.843735l-4.328125 0l0 -1.53125l10.468746 0z" fill-rule="nonzero"/><path fill="#000000" d="m70.63868 257.49976l0 8.4375l-1.109375 0l0 -3.078125q-0.390625 0.46875 -0.90625 0.75q-0.5 0.28125 -1.15625 0.28125q-0.546875 0 -0.984375 -0.203125q-0.4375 -0.21875 -0.75 -0.625q-0.3125 -0.40625 -0.484375 -1.0q-0.15625 -0.609375 -0.15625 -1.390625q0 -0.703125 0.1875 -1.296875q0.1875 -0.609375 0.53125 -1.046875q0.359375 -0.4375 0.859375 -0.6875q0.5 -0.25 1.140625 -0.25q0.609375 0 1.03125 0.21875q0.4375 0.21875 0.765625 0.609375l0.078125 -0.484375q0.0625 -0.234375 0.296875 -0.234375l0.65625 0zm-2.796875 5.484375q0.53125 0 0.9375 -0.25q0.40625 -0.25 0.75 -0.703125l0 -3.046875q-0.296875 -0.390625 -0.671875 -0.5625q-0.359375 -0.171875 -0.796875 -0.171875q-0.890625 0 -1.359375 0.625q-0.46875 0.625 -0.46875 1.796875q0 0.609375 0.09375 1.046875q0.109375 0.4375 0.3125 0.734375q0.21875 0.28125 0.515625 0.40625q0.296875 0.125 0.6875 0.125zm5.608612 -5.484375l0 4.015625q0 0.71875 0.328125 1.109375q0.34375 0.390625 1.0 0.390625q0.484375 0 0.90625 -0.234375q0.4375 -0.234375 0.796875 -0.640625l0 -4.640625l1.109375 0l0 6.296875l-0.65625 0q-0.234375 0 -0.296875 -0.234375l-0.09375 -0.671875q-0.40625 0.453125 -0.921875 0.734375q-0.5 0.265625 -1.171875 0.265625q-0.515625 0 -0.90625 -0.171875q-0.390625 -0.171875 -0.65625 -0.46875q-0.265625 -0.3125 -0.40625 -0.75q-0.125 -0.453125 -0.125 -0.984375l0 -4.015625l1.09375 0zm8.461929 -0.109375q0.5625 0 1.03125 0.203125q0.484375 0.1875 0.828125 0.546875q0.359375 0.359375 0.546875 0.890625q0.203125 0.515625 0.203125 1.1875q0 0.25 -0.0625 0.34375q-0.046875 0.09375 -0.203125 0.09375l-4.203125 0q0.015625 0.59375 0.15625 1.03125q0.15625 0.4375 0.421875 0.734375q0.265625 0.296875 0.625 0.453125q0.359375 0.140625 0.8125 0.140625q0.40625 0 0.703125 -0.09375q0.3125 -0.09375 0.53125 -0.203125q0.21875 -0.125 0.359375 -0.21875q0.140625 -0.09375 0.25 -0.09375q0.140625 0 0.21875 0.109375l0.3125 0.390625q-0.203125 0.25 -0.5 0.4375q-0.28125 0.1875 -0.609375 0.3125q-0.328125 0.109375 -0.671875 0.171875q-0.34375 0.0625 -0.6875 0.0625q-0.65625 0 -1.21875 -0.21875q-0.546875 -0.234375 -0.953125 -0.65625q-0.390625 -0.421875 -0.625 -1.046875q-0.21875 -0.640625 -0.21875 -1.453125q0 -0.65625 0.203125 -1.21875q0.203125 -0.578125 0.578125 -1.0q0.390625 -0.421875 0.9375 -0.65625q0.546875 -0.25 1.234375 -0.25zm0.015625 0.828125q-0.796875 0 -1.265625 0.46875q-0.453125 0.453125 -0.5625 1.265625l3.421875 0q0 -0.375 -0.109375 -0.6875q-0.09375 -0.328125 -0.3125 -0.5625q-0.203125 -0.234375 -0.5 -0.359375q-0.28125 -0.125 -0.671875 -0.125zm4.0014343 5.578125l0 -6.296875l0.65625 0q0.234375 0 0.296875 0.234375l0.09375 0.671875q0.40625 -0.453125 0.90625 -0.734375q0.515625 -0.28125 1.1875 -0.28125q0.515625 0 0.90625 0.171875q0.390625 0.171875 0.65625 0.5q0.265625 0.3125 0.40625 0.75q0.140625 0.4375 0.140625 0.96875l0 4.015625l-1.109375 0l0 -4.015625q0 -0.703125 -0.328125 -1.09375q-0.328125 -0.40625 -1.0 -0.40625q-0.484375 0 -0.921875 0.234375q-0.421875 0.234375 -0.78125 0.640625l0 4.640625l-1.109375 0zm11.211929 -5.1875q-0.046875 0.078125 -0.09375 0.125q-0.046875 0.03125 -0.140625 0.03125q-0.09375 0 -0.203125 -0.078125q-0.109375 -0.078125 -0.28125 -0.171875q-0.171875 -0.09375 -0.40625 -0.171875q-0.234375 -0.078125 -0.59375 -0.078125q-0.453125 0 -0.8125 0.171875q-0.359375 0.15625 -0.59375 0.46875q-0.234375 0.3125 -0.359375 0.75q-0.125 0.4375 -0.125 0.984375q0 0.578125 0.125 1.03125q0.140625 0.4375 0.375 0.734375q0.234375 0.296875 0.578125 0.46875q0.34375 0.15625 0.765625 0.15625q0.40625 0 0.65625 -0.09375q0.265625 -0.109375 0.4375 -0.21875q0.171875 -0.125 0.28125 -0.21875q0.125 -0.09375 0.234375 -0.09375q0.140625 0 0.203125 0.109375l0.3125 0.390625q-0.40625 0.515625 -1.03125 0.75q-0.609375 0.234375 -1.296875 0.234375q-0.578125 0 -1.09375 -0.21875q-0.5 -0.21875 -0.875 -0.625q-0.375 -0.421875 -0.59375 -1.015625q-0.21875 -0.609375 -0.21875 -1.390625q0 -0.703125 0.203125 -1.296875q0.203125 -0.59375 0.578125 -1.015625q0.375 -0.4375 0.921875 -0.6875q0.5625 -0.25 1.265625 -0.25q0.65625 0 1.171875 0.21875q0.515625 0.21875 0.90625 0.609375l-0.296875 0.390625zm1.5112762 5.1875l0 -9.156235l1.109375 0l0 3.7031097q0.40625 -0.4375 0.890625 -0.6875q0.5 -0.265625 1.140625 -0.265625q0.515625 0 0.90625 0.171875q0.390625 0.171875 0.65625 0.5q0.265625 0.3125 0.40625 0.75q0.140625 0.4375 0.140625 0.96875l0 4.015625l-1.109375 0l0 -4.015625q0 -0.703125 -0.328125 -1.09375q-0.328125 -0.40625 -1.0 -0.40625q-0.484375 0 -0.921875 0.234375q-0.421875 0.234375 -0.78125 0.640625l0 4.640625l-1.109375 0z" fill-rule="nonzero"/><path fill="#000000" fill-opacity="0.0" d="m32.278214 33.790028l86.96063 0l0 42.015743l-86.96063 0z" fill-rule="evenodd"/><path fill="#000000" d="m72.081314 55.22565q-0.765625 0 -1.4375 -0.25q-0.671875 -0.25 -1.1875 -0.734375q-0.515625 -0.5 -0.828125 -1.203125q-0.296875 -0.71875 -0.296875 -1.640625q0 -0.890625 0.328125 -1.640625q0.328125 -0.765625 0.90625 -1.328125q0.59375 -0.578125 1.40625 -0.90625q0.8125 -0.328125 1.78125 -0.328125q0.96875 0 1.75 0.328125q0.78125 0.3125 1.34375 0.875q0.5625 0.5625 0.859375 1.359375q0.3125 0.796875 0.3125 1.75q0 0.578125 -0.109375 1.109375q-0.109375 0.515625 -0.3125 1.015625q-0.203125 0.484375 -0.5 0.984375q-0.28125 0.484375 -0.640625 1.0l-3.25 4.703125q-0.125 0.171875 -0.359375 0.28125q-0.21875 0.109375 -0.5 0.109375l-1.53125 0l4.0625 -5.328125q0.203125 -0.265625 0.375 -0.5q0.1875 -0.25 0.34375 -0.5q-0.515625 0.421875 -1.15625 0.640625q-0.640625 0.203125 -1.359375 0.203125zm3.328125 -3.90625q0 -0.625 -0.203125 -1.125q-0.1875 -0.515625 -0.546875 -0.875q-0.359375 -0.359375 -0.84375 -0.546875q-0.484375 -0.1875 -1.078125 -0.1875q-0.609375 0 -1.125 0.203125q-0.5 0.203125 -0.859375 0.5625q-0.359375 0.34375 -0.5625 0.84375q-0.1875 0.484375 -0.1875 1.078125q0 0.625 0.171875 1.125q0.1875 0.5 0.515625 0.84375q0.34375 0.34375 0.828125 0.53125q0.5 0.171875 1.109375 0.171875q0.671875 0 1.1875 -0.21875q0.515625 -0.21875 0.875 -0.578125q0.359375 -0.359375 0.53125 -0.828125q0.1875 -0.484375 0.1875 -1.0zm12.633133 2.71875q0 1.75 -0.390625 3.03125q-0.375 1.28125 -1.03125 2.125q-0.640625 0.828125 -1.53125 1.25q-0.890625 0.40625 -1.90625 0.40625q-1.03125 0 -1.921875 -0.40625q-0.875 -0.421875 -1.53125 -1.25q-0.640625 -0.84375 -1.015625 -2.125q-0.375 -1.28125 -0.375 -3.03125q0 -1.765625 0.375 -3.046875q0.375 -1.28125 1.015625 -2.125q0.65625 -0.859375 1.53125 -1.265625q0.890625 -0.40625 1.921875 -0.40625q1.015625 0 1.90625 0.40625q0.890625 0.40625 1.53125 1.265625q0.65625 0.84375 1.03125 2.125q0.390625 1.28125 0.390625 3.046875zm-1.734375 0q0 -1.53125 -0.265625 -2.5625q-0.25 -1.046875 -0.6875 -1.6875q-0.421875 -0.640625 -1.0 -0.90625q-0.5625 -0.28125 -1.171875 -0.28125q-0.625 0 -1.203125 0.28125q-0.5625 0.265625 -0.984375 0.90625q-0.421875 0.640625 -0.6875 1.6875q-0.25 1.03125 -0.25 2.5625q0 1.515625 0.25 2.5625q0.265625 1.03125 0.6875 1.671875q0.421875 0.625 0.984375 0.90625q0.578125 0.265625 1.203125 0.265625q0.609375 0 1.171875 -0.265625q0.578125 -0.28125 1.0 -0.90625q0.4375 -0.640625 0.6875 -1.671875q0.265625 -1.046875 0.265625 -2.5625zm12.555008 0q0 1.75 -0.390625 3.03125q-0.375 1.28125 -1.03125 2.125q-0.640625 0.828125 -1.53125 1.25q-0.890625 0.40625 -1.90625 0.40625q-1.03125 0 -1.921875 -0.40625q-0.875 -0.421875 -1.53125 -1.25q-0.640625 -0.84375 -1.015625 -2.125q-0.375 -1.28125 -0.375 -3.03125q0 -1.765625 0.375 -3.046875q0.375 -1.28125 1.015625 -2.125q0.65625 -0.859375 1.53125 -1.265625q0.890625 -0.40625 1.921875 -0.40625q1.015625 0 1.90625 0.40625q0.890625 0.40625 1.53125 1.265625q0.65625 0.84375 1.03125 2.125q0.390625 1.28125 0.390625 3.046875zm-1.734375 0q0 -1.53125 -0.265625 -2.5625q-0.25 -1.046875 -0.6875 -1.6875q-0.421875 -0.640625 -1.0 -0.90625q-0.5625 -0.28125 -1.171875 -0.28125q-0.625 0 -1.203125 0.28125q-0.5625 0.265625 -0.984375 0.90625q-0.421875 0.640625 -0.6875 1.6875q-0.25 1.03125 -0.25 2.5625q0 1.515625 0.25 2.5625q0.265625 1.03125 0.6875 1.671875q0.421875 0.625 0.984375 0.90625q0.578125 0.265625 1.203125 0.265625q0.609375 0 1.171875 -0.265625q0.578125 -0.28125 1.0 -0.90625q0.4375 -0.640625 0.6875 -1.671875q0.265625 -1.046875 0.265625 -2.5625zm12.555008 0q0 1.75 -0.390625 3.03125q-0.375 1.28125 -1.03125 2.125q-0.640625 0.828125 -1.53125 1.25q-0.890625 0.40625 -1.90625 0.40625q-1.03125 0 -1.921875 -0.40625q-0.875 -0.421875 -1.53125 -1.25q-0.640625 -0.84375 -1.015625 -2.125q-0.375 -1.28125 -0.375 -3.03125q0 -1.765625 0.375 -3.046875q0.375 -1.28125 1.015625 -2.125q0.65625 -0.859375 1.53125 -1.265625q0.890625 -0.40625 1.921875 -0.40625q1.015625 0 1.90625 0.40625q0.890625 0.40625 1.53125 1.265625q0.65625 0.84375 1.03125 2.125q0.390625 1.28125 0.390625 3.046875zm-1.734375 0q0 -1.53125 -0.265625 -2.5625q-0.25 -1.046875 -0.6875 -1.6875q-0.421875 -0.640625 -1.0 -0.90625q-0.5625 -0.28125 -1.171875 -0.28125q-0.625 0 -1.203125 0.28125q-0.5625 0.265625 -0.984375 0.90625q-0.421875 0.640625 -0.6875 1.6875q-0.25 1.03125 -0.25 2.5625q0 1.515625 0.25 2.5625q0.265625 1.03125 0.6875 1.671875q0.421875 0.625 0.984375 0.90625q0.578125 0.265625 1.203125 0.265625q0.609375 0 1.171875 -0.265625q0.578125 -0.28125 1.0 -0.90625q0.4375 -0.640625 0.6875 -1.671875q0.265625 -1.046875 0.265625 -2.5625z" fill-rule="nonzero"/><path fill="#000000" fill-opacity="0.0" d="m32.278214 301.1391l86.96063 0l0 42.015747l-86.96063 0z" fill-rule="evenodd"/><path fill="#000000" d="m83.5582 314.5435q0.84375 0 1.5625 0.25q0.71875 0.234375 1.234375 0.6875q0.53125 0.4375 0.8125 1.078125q0.296875 0.625 0.296875 1.40625q0 0.640625 -0.171875 1.140625q-0.15625 0.5 -0.46875 0.875q-0.296875 0.375 -0.734375 0.640625q-0.421875 0.25 -0.953125 0.40625q1.3125 0.359375 1.96875 1.171875q0.65625 0.796875 0.65625 2.03125q0 0.921875 -0.359375 1.65625q-0.34375 0.734375 -0.953125 1.25q-0.609375 0.515625 -1.421875 0.796875q-0.796875 0.28125 -1.71875 0.28125q-1.0625 0 -1.828125 -0.265625q-0.75 -0.265625 -1.28125 -0.734375q-0.515625 -0.46875 -0.859375 -1.109375q-0.328125 -0.640625 -0.5625 -1.390625l0.71875 -0.296875q0.1875 -0.078125 0.390625 -0.078125q0.1875 0 0.328125 0.078125q0.140625 0.078125 0.21875 0.25q0.015625 0.03125 0.03125 0.078125q0.03125 0.03125 0.046875 0.078125q0.125 0.28125 0.3125 0.625q0.1875 0.328125 0.5 0.640625q0.328125 0.296875 0.796875 0.5q0.46875 0.203125 1.171875 0.203125q0.703125 0 1.21875 -0.21875q0.53125 -0.234375 0.875 -0.59375q0.359375 -0.375 0.53125 -0.8125q0.1875 -0.453125 0.1875 -0.890625q0 -0.546875 -0.15625 -0.984375q-0.140625 -0.453125 -0.515625 -0.78125q-0.375 -0.328125 -1.046875 -0.515625q-0.671875 -0.1875 -1.71875 -0.1875l0 -1.203125q0.859375 -0.015625 1.453125 -0.1875q0.609375 -0.171875 0.984375 -0.484375q0.390625 -0.3125 0.5625 -0.734375q0.171875 -0.4375 0.171875 -0.953125q0 -0.578125 -0.1875 -1.0q-0.171875 -0.4375 -0.5 -0.71875q-0.3125 -0.28125 -0.75 -0.421875q-0.4375 -0.140625 -0.9375 -0.140625q-0.5 0 -0.9375 0.15625q-0.421875 0.140625 -0.75 0.40625q-0.328125 0.265625 -0.5625 0.640625q-0.21875 0.375 -0.328125 0.796875q-0.078125 0.265625 -0.234375 0.390625q-0.140625 0.125 -0.375 0.125q-0.046875 0 -0.109375 0q-0.046875 -0.015625 -0.109375 -0.015625l-0.859375 -0.15625q0.125 -0.90625 0.5 -1.609375q0.375 -0.71875 0.9375 -1.1875q0.578125 -0.46875 1.3125 -0.71875q0.75 -0.25 1.609375 -0.25zm15.305008 6.84375q0 1.75 -0.390625 3.03125q-0.375 1.28125 -1.03125 2.125q-0.640625 0.828125 -1.53125 1.25q-0.890625 0.40625 -1.90625 0.40625q-1.03125 0 -1.921875 -0.40625q-0.875 -0.421875 -1.53125 -1.25q-0.640625 -0.84375 -1.015625 -2.125q-0.375 -1.28125 -0.375 -3.03125q0 -1.765625 0.375 -3.046875q0.375 -1.28125 1.015625 -2.125q0.65625 -0.859375 1.53125 -1.265625q0.890625 -0.40625 1.921875 -0.40625q1.015625 0 1.90625 0.40625q0.890625 0.40625 1.53125 1.265625q0.65625 0.84375 1.03125 2.125q0.390625 1.28125 0.390625 3.046875zm-1.734375 0q0 -1.53125 -0.265625 -2.5625q-0.25 -1.046875 -0.6875 -1.6875q-0.421875 -0.640625 -1.0 -0.90625q-0.5625 -0.28125 -1.171875 -0.28125q-0.625 0 -1.203125 0.28125q-0.5625 0.265625 -0.984375 0.90625q-0.421875 0.640625 -0.6875 1.6875q-0.25 1.03125 -0.25 2.5625q0 1.515625 0.25 2.5625q0.265625 1.03125 0.6875 1.671875q0.421875 0.625 0.984375 0.90625q0.578125 0.265625 1.203125 0.265625q0.609375 0 1.171875 -0.265625q0.578125 -0.28125 1.0 -0.90625q0.4375 -0.640625 0.6875 -1.671875q0.265625 -1.046875 0.265625 -2.5625zm12.555008 0q0 1.75 -0.390625 3.03125q-0.375 1.28125 -1.03125 2.125q-0.640625 0.828125 -1.53125 1.25q-0.890625 0.40625 -1.90625 0.40625q-1.03125 0 -1.921875 -0.40625q-0.875 -0.421875 -1.53125 -1.25q-0.640625 -0.84375 -1.015625 -2.125q-0.375 -1.28125 -0.375 -3.03125q0 -1.765625 0.375 -3.046875q0.375 -1.28125 1.015625 -2.125q0.65625 -0.859375 1.53125 -1.265625q0.890625 -0.40625 1.921875 -0.40625q1.015625 0 1.90625 0.40625q0.890625 0.40625 1.53125 1.265625q0.65625 0.84375 1.03125 2.125q0.390625 1.28125 0.390625 3.046875zm-1.734375 0q0 -1.53125 -0.265625 -2.5625q-0.25 -1.046875 -0.6875 -1.6875q-0.421875 -0.640625 -1.0 -0.90625q-0.5625 -0.28125 -1.171875 -0.28125q-0.625 0 -1.203125 0.28125q-0.5625 0.265625 -0.984375 0.90625q-0.421875 0.640625 -0.6875 1.6875q-0.25 1.03125 -0.25 2.5625q0 1.515625 0.25 2.5625q0.265625 1.03125 0.6875 1.671875q0.421875 0.625 0.984375 0.90625q0.578125 0.265625 1.203125 0.265625q0.609375 0 1.171875 -0.265625q0.578125 -0.28125 1.0 -0.90625q0.4375 -0.640625 0.6875 -1.671875q0.265625 -1.046875 0.265625 -2.5625z" fill-rule="nonzero"/><path fill="#000000" fill-opacity="0.0" d="m375.27298 388.4252l166.86612 0l0 51.716522l-166.86612 0z" fill-rule="evenodd"/><path fill="#000000" d="m421.1217 403.93146l0 2.171875l-6.171875 0l0 16.921875l-2.578125 0l0 -16.921875l-6.203125 0l0 -2.171875l14.953125 0zm4.977112 5.59375l0 13.5l-2.359375 0l0 -13.5l2.359375 0zm0.546875 -4.234375q0 0.34375 -0.140625 0.640625q-0.140625 0.296875 -0.375 0.53125q-0.234375 0.234375 -0.546875 0.375q-0.296875 0.125 -0.65625 0.125q-0.34375 0 -0.640625 -0.125q-0.296875 -0.140625 -0.53125 -0.375q-0.234375 -0.234375 -0.375 -0.53125q-0.125 -0.296875 -0.125 -0.640625q0 -0.359375 0.125 -0.671875q0.140625 -0.3125 0.375 -0.53125q0.234375 -0.234375 0.53125 -0.375q0.296875 -0.140625 0.640625 -0.140625q0.359375 0 0.65625 0.140625q0.3125 0.140625 0.546875 0.375q0.234375 0.21875 0.375 0.53125q0.140625 0.3125 0.140625 0.671875zm3.6520996 17.734375l0 -13.5l1.40625 0q0.5 0 0.640625 0.484375l0.171875 1.390625q0.75 -0.921875 1.671875 -1.5q0.921875 -0.59375 2.15625 -0.59375q1.375 0 2.21875 0.765625q0.84375 0.765625 1.21875 2.046875q0.28125 -0.734375 0.734375 -1.265625q0.46875 -0.53125 1.03125 -0.875q0.578125 -0.34375 1.21875 -0.5q0.65625 -0.171875 1.3125 -0.171875q1.078125 0 1.90625 0.34375q0.828125 0.34375 1.40625 1.0q0.578125 0.640625 0.890625 1.59375q0.3125 0.953125 0.3125 2.1875l0 8.59375l-2.375 0l0 -8.59375q0 -1.59375 -0.703125 -2.40625q-0.6875 -0.828125 -2.0 -0.828125q-0.59375 0 -1.125 0.21875q-0.515625 0.203125 -0.921875 0.609375q-0.390625 0.390625 -0.625 1.0q-0.234375 0.609375 -0.234375 1.40625l0 8.59375l-2.375 0l0 -8.59375q0 -1.625 -0.65625 -2.421875q-0.65625 -0.8125 -1.90625 -0.8125q-0.875 0 -1.640625 0.484375q-0.75 0.46875 -1.375 1.28125l0 10.0625l-2.359375 0zm27.228455 -13.71875q1.203125 0 2.234375 0.40625q1.03125 0.40625 1.765625 1.171875q0.75 0.765625 1.171875 1.90625q0.421875 1.125 0.421875 2.5625q0 0.546875 -0.125 0.734375q-0.125 0.1875 -0.453125 0.1875l-8.984375 0q0.03125 1.28125 0.34375 2.234375q0.328125 0.9375 0.890625 1.578125q0.5625 0.625 1.328125 0.953125q0.765625 0.3125 1.734375 0.3125q0.890625 0 1.53125 -0.203125q0.65625 -0.21875 1.125 -0.453125q0.46875 -0.25 0.78125 -0.453125q0.3125 -0.203125 0.53125 -0.203125q0.296875 0 0.453125 0.21875l0.671875 0.875q-0.4375 0.53125 -1.0625 0.921875q-0.609375 0.390625 -1.3125 0.65625q-0.6875 0.25 -1.4375 0.375q-0.75 0.125 -1.484375 0.125q-1.390625 0 -2.578125 -0.46875q-1.171875 -0.484375 -2.03125 -1.390625q-0.859375 -0.90625 -1.34375 -2.25q-0.484375 -1.359375 -0.484375 -3.109375q0 -1.40625 0.4375 -2.625q0.4375 -1.234375 1.25 -2.125q0.8125 -0.90625 1.984375 -1.421875q1.171875 -0.515625 2.640625 -0.515625zm0.046875 1.75q-1.71875 0 -2.703125 1.0q-0.984375 0.984375 -1.234375 2.75l7.34375 0q0 -0.828125 -0.234375 -1.515625q-0.21875 -0.6875 -0.65625 -1.1875q-0.4375 -0.5 -1.078125 -0.765625q-0.625 -0.28125 -1.4375 -0.28125zm15.628082 3.578125q0 2.859375 0.71875 5.546875q0.734375 2.6875 2.125 5.125q0.078125 0.140625 0.109375 0.25q0.03125 0.109375 0.03125 0.21875q0 0.1875 -0.09375 0.296875q-0.09375 0.125 -0.25 0.21875l-1.046875 0.640625q-1.0 -1.53125 -1.703125 -3.046875q-0.703125 -1.5 -1.140625 -3.015625q-0.421875 -1.515625 -0.625 -3.046875q-0.203125 -1.546875 -0.203125 -3.1875q0 -1.609375 0.203125 -3.15625q0.203125 -1.546875 0.625 -3.046875q0.4375 -1.515625 1.140625 -3.015625q0.703125 -1.515625 1.703125 -3.0625l1.046875 0.65625q0.15625 0.09375 0.25 0.21875q0.09375 0.109375 0.09375 0.296875q0 0.203125 -0.140625 0.453125q-1.40625 2.421875 -2.125 5.125q-0.71875 2.6875 -0.71875 5.53125zm6.0906067 12.96875l0 -18.078125l1.40625 0q0.5 0 0.640625 0.484375l0.203125 1.609375q0.859375 -1.0625 1.96875 -1.6875q1.125 -0.640625 2.578125 -0.640625q1.15625 0 2.09375 0.453125q0.953125 0.4375 1.609375 1.3125q0.671875 0.859375 1.03125 2.15625q0.359375 1.296875 0.359375 2.96875q0 1.5 -0.40625 2.796875q-0.390625 1.28125 -1.140625 2.21875q-0.734375 0.9375 -1.828125 1.484375q-1.078125 0.53125 -2.4375 0.53125q-1.265625 0 -2.15625 -0.40625q-0.875 -0.421875 -1.5625 -1.1875l0 5.984375l-2.359375 0zm6.0 -16.40625q-1.15625 0 -2.03125 0.546875q-0.875 0.53125 -1.609375 1.5l0 6.53125q0.65625 0.875 1.4375 1.234375q0.78125 0.359375 1.734375 0.359375q1.890625 0 2.890625 -1.34375q1.015625 -1.34375 1.015625 -3.84375q0 -1.3125 -0.234375 -2.25q-0.234375 -0.953125 -0.671875 -1.5625q-0.4375 -0.609375 -1.078125 -0.890625q-0.640625 -0.28125 -1.453125 -0.28125zm16.432953 0.546875q-0.15625 0.296875 -0.484375 0.296875q-0.203125 0 -0.453125 -0.140625q-0.25 -0.15625 -0.625 -0.328125q-0.359375 -0.1875 -0.875 -0.328125q-0.5 -0.15625 -1.203125 -0.15625q-0.59375 0 -1.078125 0.15625q-0.46875 0.140625 -0.8125 0.40625q-0.34375 0.265625 -0.53125 0.625q-0.171875 0.359375 -0.171875 0.765625q0 0.515625 0.296875 0.875q0.296875 0.34375 0.796875 0.59375q0.5 0.25 1.125 0.453125q0.625 0.1875 1.28125 0.40625q0.65625 0.21875 1.28125 0.484375q0.625 0.265625 1.125 0.671875q0.5 0.390625 0.796875 0.984375q0.296875 0.578125 0.296875 1.390625q0 0.921875 -0.34375 1.71875q-0.328125 0.796875 -0.984375 1.375q-0.640625 0.578125 -1.59375 0.921875q-0.9375 0.328125 -2.1875 0.328125q-1.40625 0 -2.5625 -0.453125q-1.140625 -0.46875 -1.9375 -1.1875l0.5625 -0.90625q0.109375 -0.171875 0.25 -0.265625q0.140625 -0.09375 0.390625 -0.09375q0.234375 0 0.5 0.1875q0.265625 0.1875 0.640625 0.421875q0.390625 0.21875 0.921875 0.40625q0.546875 0.171875 1.359375 0.171875q0.6875 0 1.203125 -0.171875q0.53125 -0.1875 0.875 -0.484375q0.34375 -0.3125 0.5 -0.703125q0.171875 -0.40625 0.171875 -0.859375q0 -0.5625 -0.296875 -0.921875q-0.296875 -0.375 -0.796875 -0.625q-0.484375 -0.265625 -1.125 -0.453125q-0.625 -0.203125 -1.296875 -0.40625q-0.65625 -0.21875 -1.296875 -0.484375q-0.625 -0.28125 -1.125 -0.6875q-0.484375 -0.421875 -0.78125 -1.03125q-0.296875 -0.609375 -0.296875 -1.46875q0 -0.765625 0.3125 -1.484375q0.328125 -0.71875 0.9375 -1.25q0.609375 -0.546875 1.5 -0.859375q0.90625 -0.328125 2.046875 -0.328125q1.328125 0 2.390625 0.421875q1.0625 0.421875 1.828125 1.15625l-0.53125 0.859375zm5.8656616 2.890625q0 -2.84375 -0.734375 -5.53125q-0.71875 -2.703125 -2.109375 -5.125q-0.140625 -0.25 -0.140625 -0.453125q0 -0.1875 0.09375 -0.296875q0.09375 -0.125 0.234375 -0.21875l1.0625 -0.65625q1.0 1.546875 1.6875 3.0625q0.703125 1.5 1.140625 3.015625q0.4375 1.5 0.625 3.046875q0.203125 1.546875 0.203125 3.15625q0 1.640625 -0.203125 3.1875q-0.1875 1.53125 -0.625 3.046875q-0.4375 1.515625 -1.140625 3.015625q-0.6875 1.515625 -1.6875 3.046875l-1.0625 -0.640625q-0.140625 -0.09375 -0.234375 -0.21875q-0.09375 -0.109375 -0.09375 -0.296875q0 -0.109375 0.03125 -0.21875q0.03125 -0.109375 0.109375 -0.25q1.375 -2.4375 2.109375 -5.125q0.734375 -2.6875 0.734375 -5.546875z" fill-rule="nonzero"/><path fill="#000000" fill-opacity="0.0" d="m-4.6430445 315.90552l0 -226.61418l48.47244 0l0 226.61418z" fill-rule="evenodd"/><path fill="#000000" d="m10.193831 274.3262l1.96875 0l0 5.546875l15.234374 0l0 2.328125l-15.234374 0l0 5.578125l-1.96875 0l0 -13.453125zm4.859375 -4.405731q0 -1.09375 0.375 -2.015625q0.359375 -0.921875 1.046874 -1.59375q0.6875 -0.671875 1.703125 -1.046875q1.015625 -0.390625 2.3125 -0.390625q0.5 0 0.671875 0.109375q0.15625 0.109375 0.15625 0.40625l0 8.09375q1.15625 -0.03125 2.015625 -0.3125q0.84375 -0.28125 1.421875 -0.78125q0.5625 -0.515625 0.84375 -1.203125q0.28125 -0.703125 0.28125 -1.5625q0 -0.8125 -0.1875 -1.390625q-0.1875 -0.578125 -0.390625 -1.0q-0.21875 -0.421875 -0.40625 -0.703125q-0.1875 -0.28125 -0.1875 -0.484375q0 -0.265625 0.203125 -0.40625l0.78125 -0.609375q0.484375 0.40625 0.84375 0.953125q0.34375 0.546875 0.578125 1.1875q0.21875 0.625 0.328125 1.296875q0.125 0.671875 0.125 1.328125q0 1.265625 -0.421875 2.328125q-0.4375 1.0625 -1.25 1.84375q-0.828125 0.765625 -2.03125 1.203125q-1.21875 0.421875 -2.796875 0.421875q-1.265625 0 -2.359375 -0.390625q-1.109375 -0.390625 -1.921875 -1.109375q-0.81249905 -0.734375 -1.265624 -1.796875q-0.46875 -1.0625 -0.46875 -2.375zm1.562499 -0.046875q0 1.546875 0.90625 2.4375q0.890625 0.890625 2.46875 1.09375l0 -6.609375q-0.734375 0 -1.359375 0.203125q-0.625 0.203125 -1.0625 0.609375q-0.453125 0.390625 -0.703125 0.96875q-0.25 0.5625 -0.25 1.296875zm10.78125 -7.7167053l-12.156249 0l0 -1.28125q0 -0.453125 0.4375 -0.5625l1.249999 -0.15625q-0.828125 -0.671875 -1.343749 -1.5q-0.53125 -0.84375 -0.53125 -1.953125q0 -1.2343903 0.6875 -1.9843903q0.67187405 -0.765625 1.843749 -1.109375q-0.65625 -0.25 -1.140625 -0.65625q-0.48437405 -0.421875 -0.79687405 -0.9375q-0.3125 -0.515625 -0.453125 -1.09375q-0.140625 -0.59375 -0.140625 -1.1875q0 -0.953125 0.3125 -1.703125q0.296875 -0.75 0.89062405 -1.265625q0.578125 -0.53125 1.4375 -0.8125q0.859375 -0.28125 1.96875 -0.28125l7.734375 0l0 2.140625l-7.734375 0q-1.4375 0 -2.171875 0.625q-0.734375 0.625 -0.734375 1.8125q0 0.53125 0.1875 1.0q0.1875 0.46875 0.546875 0.84375q0.359375 0.359375 0.90625 0.5625q0.546875 0.203125 1.265625 0.203125l7.734375 0l0 2.140625l-7.734375 0q-1.46875 0 -2.1875 0.59375q-0.71875 0.57814026 -0.71875 1.7187653q0 0.78125 0.421875 1.46875q0.421875 0.671875 1.15625 1.234375l9.0625 0l0 2.140625zm4.109375 -19.704147l-16.265625 0l0 -1.28125q0 -0.453125 0.4375 -0.5625l1.453124 -0.1875q-0.953125 -0.78125 -1.531249 -1.78125q-0.578125 -1.0 -0.578125 -2.3125q0 -1.046875 0.40625 -1.890625q0.40625 -0.859375 1.187499 -1.453125q0.78125 -0.59375 1.953125 -0.921875q1.15625 -0.328125 2.671875 -0.328125q1.34375 0 2.5 0.359375q1.15625 0.359375 2.015625 1.03125q0.84375 0.671875 1.328125 1.65625q0.484375 0.96875 0.484375 2.203125q0 1.125 -0.375 1.921875q-0.375 0.796875 -1.0625 1.40625l5.375 0l0 2.140625zm-14.75 -5.40625q0 1.03125 0.484375 1.828125q0.46875 0.78125 1.34375 1.4375l5.890625 0q0.78125 -0.578125 1.109375 -1.28125q0.328125 -0.703125 0.328125 -1.578125q0 -1.6875 -1.203125 -2.59375q-1.21875 -0.921875 -3.46875 -0.921875q-1.1875 0 -2.03125 0.21875q-0.859375 0.203125 -1.40625 0.609375q-0.546875 0.390625 -0.796875 0.96875q-0.25 0.578125 -0.25 1.3125zm-1.703124 -12.654343q0 -1.09375 0.375 -2.015625q0.359375 -0.921875 1.046874 -1.59375q0.6875 -0.671875 1.703125 -1.046875q1.015625 -0.390625 2.3125 -0.390625q0.5 0 0.671875 0.109375q0.15625 0.109375 0.15625 0.40625l0 8.09375q1.15625 -0.03125 2.015625 -0.3125q0.84375 -0.28125 1.421875 -0.78125q0.5625 -0.515625 0.84375 -1.203125q0.28125 -0.703125 0.28125 -1.5625q0 -0.8125 -0.1875 -1.390625q-0.1875 -0.578125 -0.390625 -1.0q-0.21875 -0.421875 -0.40625 -0.703125q-0.1875 -0.28125 -0.1875 -0.484375q0 -0.265625 0.203125 -0.40625l0.78125 -0.609375q0.484375 0.40625 0.84375 0.953125q0.34375 0.546875 0.578125 1.1875q0.21875 0.625 0.328125 1.296875q0.125 0.671875 0.125 1.328125q0 1.265625 -0.421875 2.328125q-0.4375 1.0625 -1.25 1.84375q-0.828125 0.765625 -2.03125 1.203125q-1.21875 0.421875 -2.796875 0.421875q-1.265625 0 -2.359375 -0.390625q-1.109375 -0.390625 -1.921875 -1.109375q-0.81249905 -0.734375 -1.265624 -1.796875q-0.46875 -1.0625 -0.46875 -2.375zm1.562499 -0.046875q0 1.546875 0.90625 2.4375q0.890625 0.890625 2.46875 1.09375l0 -6.609375q-0.734375 0 -1.359375 0.203125q-0.625 0.203125 -1.0625 0.609375q-0.453125 0.390625 -0.703125 0.96875q-0.25 0.5625 -0.25 1.296875zm10.78125 -7.7167206l-12.156249 0l0 -1.21875q0 -0.359375 0.140625 -0.484375q0.125 -0.140625 0.453125 -0.1875l1.890624 -0.140625q-1.265625 -0.625 -1.984374 -1.53125q-0.71875 -0.921875 -0.71875 -2.15625q0 -0.515625 0.125 -0.921875q0.109375 -0.40625 0.3125 -0.75l1.593749 0.265625q0.296875 0.09375 0.296875 0.375q0 0.171875 -0.109375 0.53125q-0.109375 0.34375 -0.109375 0.953125q0 1.125 0.65625 1.875q0.640625 0.75 1.875 1.25l7.734375 0l0 2.140625zm0 -18.15358l0 0.953125q0 0.3125 -0.09375 0.515625q-0.09375 0.1875 -0.40625 0.25l-1.125 0.234375q0.421875 0.484375 0.765625 0.9375q0.34375 0.453125 0.578125 0.953125q0.234375 0.5 0.34375 1.078125q0.125 0.5625 0.125 1.265625q0 0.703125 -0.1875 1.328125q-0.203125 0.609375 -0.59375 1.078125q-0.40625 0.453125 -1.0 0.71875q-0.609375 0.265625 -1.4375 0.265625q-0.71875 0 -1.390625 -0.390625q-0.671875 -0.390625 -1.1875 -1.265625q-0.515625 -0.890625 -0.84375 -2.3125q-0.328125 -1.4375 -0.375 -3.5l-0.953125 0q-1.40625 0 -2.125 0.609375q-0.734375 0.59375 -0.734375 1.78125q0 0.78125 0.203125 1.328125q0.1875 0.53125 0.4375 0.921875q0.25 0.390625 0.453125 0.671875q0.1875 0.28125 0.1875 0.546875q0 0.21875 -0.109375 0.390625q-0.125 0.15625 -0.28125 0.25l-0.6875 0.390625q-0.96874905 -1.015625 -1.453124 -2.171875q-0.484375 -1.171875 -0.484375 -2.578125q0 -1.03125 0.34375 -1.8125q0.328125 -0.796875 0.93749905 -1.328125q0.59375 -0.546875 1.453125 -0.828125q0.84375 -0.28125 1.859375 -0.28125l7.78125 0zm-1.3125 5.546875q0 -0.5625 -0.109375 -1.03125q-0.109375 -0.46875 -0.3125 -0.875q-0.21875 -0.421875 -0.515625 -0.796875q-0.3125 -0.375 -0.6875 -0.734375l-2.53125 0q0.046875 1.46875 0.234375 2.5q0.1875 1.03125 0.484375 1.6875q0.296875 0.640625 0.703125 0.9375q0.40625 0.296875 0.921875 0.296875q0.46875 0 0.828125 -0.15625q0.34375 -0.15625 0.5625 -0.421875q0.21875 -0.265625 0.328125 -0.625q0.09375 -0.359375 0.09375 -0.78125zm1.5 -12.464966q0 1.4375 -0.796875 2.21875q-0.8125 0.765625 -2.3125 0.765625l-7.453125 0l0 1.46875q0 0.1875 -0.109375 0.328125q-0.109375 0.125 -0.359375 0.125l-0.84374905 0l-0.25 -1.984375l-3.765625 -0.5q-0.171875 -0.015625 -0.28125 -0.140625q-0.125 -0.140625 -0.125 -0.34375l0 -1.078125l4.1875 0l0 -3.484375l1.546874 0l0 3.484375l7.296875 0q0.78125 0 1.15625 -0.375q0.359375 -0.375 0.359375 -0.96875q0 -0.328125 -0.078125 -0.578125q-0.09375 -0.25 -0.203125 -0.421875q-0.109375 -0.1875 -0.203125 -0.3125q-0.09375 -0.125 -0.09375 -0.21875q0 -0.171875 0.203125 -0.296875l1.03125 -0.625q0.515625 0.546875 0.8125 1.328125q0.28125 0.78125 0.28125 1.609375zm-12.343749 -7.108307l7.749999 0q1.375 0 2.140625 -0.640625q0.75 -0.640625 0.75 -1.921875q0 -0.9375 -0.4375 -1.765625q-0.453125 -0.828125 -1.234375 -1.515625l-8.968749 0l0 -2.140625l12.156249 0l0 1.265625q0 0.453125 -0.4375 0.578125l-1.3125 0.171875q0.875 0.796875 1.40625 1.78125q0.53125 0.984375 0.53125 2.25q0 1.0 -0.328125 1.765625q-0.328125 0.75 -0.921875 1.265625q-0.609375 0.515625 -1.453125 0.78125q-0.859375 0.25 -1.890625 0.25l-7.749999 0l0 -2.125zm12.156249 -11.500336l-12.156249 0l0 -1.21875q0 -0.359375 0.140625 -0.484375q0.125 -0.140625 0.453125 -0.1875l1.890624 -0.140625q-1.265625 -0.625 -1.984374 -1.53125q-0.71875 -0.921875 -0.71875 -2.15625q0 -0.515625 0.125 -0.921875q0.109375 -0.40625 0.3125 -0.75l1.593749 0.265625q0.296875 0.09375 0.296875 0.375q0 0.171875 -0.109375 0.53125q-0.109375 0.34375 -0.109375 0.953125q0 1.125 0.65625 1.875q0.640625 0.75 1.875 1.25l7.734375 0l0 2.140625zm-12.343749 -14.484589q0 -1.09375 0.375 -2.015625q0.359375 -0.921875 1.046874 -1.59375q0.6875 -0.671875 1.703125 -1.046875q1.015625 -0.390625 2.3125 -0.390625q0.5 0 0.671875 0.109375q0.15625 0.109375 0.15625 0.40625l0 8.09375q1.15625 -0.03125 2.015625 -0.3125q0.84375 -0.28125 1.421875 -0.78125q0.5625 -0.515625 0.84375 -1.203125q0.28125 -0.703125 0.28125 -1.5625q0 -0.8125 -0.1875 -1.390625q-0.1875 -0.578125 -0.390625 -1.0q-0.21875 -0.421875 -0.40625 -0.703125q-0.1875 -0.28125 -0.1875 -0.484375q0 -0.265625 0.203125 -0.40625l0.78125 -0.609375q0.484375 0.40625 0.84375 0.953125q0.34375 0.546875 0.578125 1.1875q0.21875 0.625 0.328125 1.296875q0.125 0.671875 0.125 1.328125q0 1.265625 -0.421875 2.328125q-0.4375 1.0625 -1.25 1.84375q-0.828125 0.765625 -2.03125 1.203125q-1.21875 0.421875 -2.796875 0.421875q-1.265625 0 -2.359375 -0.390625q-1.109375 -0.390625 -1.921875 -1.109375q-0.81249905 -0.734375 -1.265624 -1.796875q-0.46875 -1.0625 -0.46875 -2.375zm1.562499 -0.046875q0 1.546875 0.90625 2.4375q0.890625 0.890625 2.46875 1.09375l0 -6.609375q-0.734375 0 -1.359375 0.203125q-0.625 0.203125 -1.0625 0.609375q-0.453125 0.390625 -0.703125 0.96875q-0.25 0.5625 -0.25 1.296875zm3.234375 -14.067505q2.5625 0 4.984375 -0.65625q2.421875 -0.65625 4.609375 -1.90625q0.140625 -0.078125 0.234375 -0.09375q0.09375 -0.03125 0.1875 -0.03125q0.171875 0 0.28125 0.09375q0.109375 0.078125 0.1875 0.203125l0.578125 0.953125q-1.375 0.890625 -2.734375 1.53125q-1.359375 0.625 -2.71875 1.015625q-1.375 0.390625 -2.75 0.578125q-1.390625 0.171875 -2.859375 0.171875q-1.453125 0 -2.84375 -0.171875q-1.390624 -0.1875 -2.749999 -0.578125q-1.375 -0.390625 -2.71875 -1.015625q-1.359375 -0.640625 -2.75 -1.53125l0.578125 -0.953125q0.09375 -0.125 0.203125 -0.203125q0.109375 -0.09375 0.265625 -0.09375q0.1875 0 0.421875 0.125q2.171875 1.25 4.609375 1.90625q2.421874 0.65625 4.984374 0.65625zm-2.109375 -8.371918l0 -0.875q0 -0.453125 -0.109375 -0.71875q-0.125 -0.28125 -0.40625 -0.515625l-6.468749 -5.734375q-0.296875 -0.26563263 -0.421875 -0.5000076q-0.140625 -0.25 -0.140625 -0.640625l0 -1.96875l7.406249 6.5468826q0.28125 0.25 0.484375 0.46875q0.1875 0.21875 0.296875 0.484375q0.109375 -0.34375 0.328125 -0.59375q0.21875 -0.25 0.546875 -0.53125l8.140625 -6.8437576l0 2.015625q0 0.234375 -0.03125 0.390625q-0.046875 0.15625 -0.09375 0.28125q-0.0625 0.109375 -0.15625 0.203125q-0.109375 0.09375 -0.203125 0.1875l-6.828125 5.9375076q-0.15625 0.140625 -0.25 0.25q-0.109375 0.109375 -0.171875 0.265625q-0.078125 0.140625 -0.109375 0.34375q-0.03125 0.203125 -0.03125 0.484375l0 1.0625l7.875 0l0 2.3125l-17.203125 0l0 -2.3125l7.546874 0zm2.109375 -15.281624q-2.5625 0 -4.984374 0.65625q-2.4375 0.65625 -4.609375 1.90625q-0.234375 0.125 -0.421875 0.125q-0.15625 0 -0.265625 -0.078125q-0.109375 -0.09375 -0.203125 -0.21875l-0.578125 -0.953125q1.390625 -0.890625 2.75 -1.515625q1.34375 -0.640625 2.71875 -1.03125q1.359375 -0.390625 2.749999 -0.5625q1.390625 -0.1875 2.84375 -0.1875q1.46875 0 2.859375 0.1875q1.375 0.171875 2.75 0.5625q1.359375 0.390625 2.71875 1.03125q1.359375 0.625 2.734375 1.515625l-0.578125 0.953125q-0.078125 0.125 -0.1875 0.21875q-0.109375 0.078125 -0.28125 0.078125q-0.09375 0 -0.1875 -0.015625q-0.09375 -0.03125 -0.234375 -0.109375q-2.1875 -1.234375 -4.609375 -1.890625q-2.421875 -0.671875 -4.984375 -0.671875z" fill-rule="nonzero"/><path fill="#000000" fill-opacity="0.0" d="m147.4357 363.51968l37.102356 0l0 42.015747l-37.102356 0z" fill-rule="evenodd"/><path fill="#000000" d="m169.70155 377.79907q0 0.359375 -0.234375 0.59375q-0.21875 0.21875 -0.75 0.21875l-4.1875 0l-0.625 3.5q1.046875 -0.21875 1.9375 -0.21875q1.046875 0 1.84375 0.3125q0.796875 0.3125 1.328125 0.859375q0.546875 0.53125 0.8125 1.265625q0.28125 0.734375 0.28125 1.609375q0 1.0625 -0.375 1.921875q-0.375 0.859375 -1.03125 1.46875q-0.640625 0.609375 -1.515625 0.9375q-0.875 0.328125 -1.890625 0.328125q-0.59375 0 -1.140625 -0.125q-0.53125 -0.109375 -1.0 -0.296875q-0.453125 -0.203125 -0.859375 -0.453125q-0.40625 -0.265625 -0.71875 -0.546875l0.515625 -0.703125q0.15625 -0.234375 0.4375 -0.234375q0.1875 0 0.421875 0.140625q0.234375 0.140625 0.5625 0.328125q0.34375 0.171875 0.796875 0.3125q0.453125 0.140625 1.078125 0.140625q0.703125 0 1.25 -0.21875q0.5625 -0.21875 0.953125 -0.640625q0.40625 -0.421875 0.625 -1.0q0.21875 -0.578125 0.21875 -1.296875q0 -0.625 -0.1875 -1.125q-0.1875 -0.5 -0.5625 -0.84375q-0.359375 -0.359375 -0.90625 -0.546875q-0.546875 -0.203125 -1.28125 -0.203125q-0.515625 0 -1.0625 0.078125q-0.53125 0.078125 -1.109375 0.265625l-1.046875 -0.3125l1.09375 -6.25l6.328125 0l0 0.734375z" fill-rule="nonzero"/><path fill="#000000" fill-opacity="0.0" d="m179.17586 363.51968l45.13385 0l0 42.015747l-45.13385 0z" fill-rule="evenodd"/><path fill="#000000" d="m193.59402 389.17407l2.875 0l0 -9.109375q0 -0.421875 0.03125 -0.84375l-2.390625 2.046875q-0.09375 0.078125 -0.1875 0.109375q-0.09375 0.03125 -0.171875 0.03125q-0.140625 0 -0.25 -0.0625q-0.109375 -0.0625 -0.171875 -0.140625l-0.515625 -0.71875l3.96875 -3.4375l1.34375 0l0 12.125l2.640625 0l0 1.265625l-7.171875 0l0 -1.265625zm18.414383 -5.40625q0 1.75 -0.390625 3.03125q-0.375 1.28125 -1.03125 2.125q-0.640625 0.828125 -1.53125 1.25q-0.890625 0.40625 -1.90625 0.40625q-1.03125 0 -1.921875 -0.40625q-0.875 -0.421875 -1.53125 -1.25q-0.640625 -0.84375 -1.015625 -2.125q-0.375 -1.28125 -0.375 -3.03125q0 -1.765625 0.375 -3.046875q0.375 -1.28125 1.015625 -2.125q0.65625 -0.859375 1.53125 -1.265625q0.890625 -0.40625 1.921875 -0.40625q1.015625 0 1.90625 0.40625q0.890625 0.40625 1.53125 1.265625q0.65625 0.84375 1.03125 2.125q0.390625 1.28125 0.390625 3.046875zm-1.734375 0q0 -1.53125 -0.265625 -2.5625q-0.25 -1.046875 -0.6875 -1.6875q-0.421875 -0.640625 -1.0 -0.90625q-0.5625 -0.28125 -1.171875 -0.28125q-0.625 0 -1.203125 0.28125q-0.5625 0.265625 -0.984375 0.90625q-0.421875 0.640625 -0.6875 1.6875q-0.25 1.03125 -0.25 2.5625q0 1.515625 0.25 2.5625q0.265625 1.03125 0.6875 1.671875q0.421875 0.625 0.984375 0.90625q0.578125 0.265625 1.203125 0.265625q0.609375 0 1.171875 -0.265625q0.578125 -0.28125 1.0 -0.90625q0.4375 -0.640625 0.6875 -1.671875q0.265625 -1.046875 0.265625 -2.5625z" fill-rule="nonzero"/><path fill="#000000" fill-opacity="0.0" d="m165.98688 352.5878l0 7.936981" fill-rule="evenodd"/><path stroke="#000000" stroke-width="2.0" stroke-linejoin="round" stroke-linecap="butt" d="m165.98688 352.5878l0 7.936981" fill-rule="evenodd"/><path fill="#000000" fill-opacity="0.0" d="m201.74278 352.5878l0 7.936981" fill-rule="evenodd"/><path stroke="#000000" stroke-width="2.0" stroke-linejoin="round" stroke-linecap="butt" d="m201.74278 352.5878l0 7.936981" fill-rule="evenodd"/><path fill="#000000" fill-opacity="0.0" d="m331.06824 352.5878l0 7.936981" fill-rule="evenodd"/><path stroke="#000000" stroke-width="2.0" stroke-linejoin="round" stroke-linecap="butt" d="m331.06824 352.5878l0 7.936981" fill-rule="evenodd"/><path fill="#000000" fill-opacity="0.0" d="m586.35956 352.5878l0 7.936981" fill-rule="evenodd"/><path stroke="#000000" stroke-width="2.0" stroke-linejoin="round" stroke-linecap="butt" d="m586.35956 352.5878l0 7.936981" fill-rule="evenodd"/><path fill="#000000" fill-opacity="0.0" d="m714.3033 352.5878l0 7.936981" fill-rule="evenodd"/><path stroke="#000000" stroke-width="2.0" stroke-linejoin="round" stroke-linecap="butt" d="m714.3033 352.5878l0 7.936981" fill-rule="evenodd"/><path fill="#000000" fill-opacity="0.0" d="m128.86203 352.5878l0 7.936981" fill-rule="evenodd"/><path stroke="#000000" stroke-width="2.0" stroke-linejoin="round" stroke-linecap="butt" d="m128.86203 352.5878l0 7.936981" fill-rule="evenodd"/><path fill="#000000" fill-opacity="0.0" d="m111.8399 363.51968l37.102364 0l0 42.015747l-37.102364 0z" fill-rule="evenodd"/><path fill="#000000" d="m135.24638 383.76782q0 1.75 -0.390625 3.03125q-0.375 1.28125 -1.03125 2.125q-0.640625 0.828125 -1.53125 1.25q-0.890625 0.40625 -1.90625 0.40625q-1.03125 0 -1.921875 -0.40625q-0.875 -0.421875 -1.53125 -1.25q-0.640625 -0.84375 -1.015625 -2.125q-0.375 -1.28125 -0.375 -3.03125q0 -1.765625 0.375 -3.046875q0.375 -1.28125 1.015625 -2.125q0.65625 -0.859375 1.53125 -1.265625q0.890625 -0.40625 1.921875 -0.40625q1.015625 0 1.90625 0.40625q0.890625 0.40625 1.53125 1.265625q0.65625 0.84375 1.03125 2.125q0.390625 1.28125 0.390625 3.046875zm-1.734375 0q0 -1.53125 -0.265625 -2.5625q-0.25 -1.046875 -0.6875 -1.6875q-0.421875 -0.640625 -1.0 -0.90625q-0.5625 -0.28125 -1.171875 -0.28125q-0.625 0 -1.203125 0.28125q-0.5625 0.265625 -0.984375 0.90625q-0.421875 0.640625 -0.6875 1.6875q-0.25 1.03125 -0.25 2.5625q0 1.515625 0.25 2.5625q0.265625 1.03125 0.6875 1.671875q0.421875 0.625 0.984375 0.90625q0.578125 0.265625 1.203125 0.265625q0.609375 0 1.171875 -0.265625q0.578125 -0.28125 1.0 -0.90625q0.4375 -0.640625 0.6875 -1.671875q0.265625 -1.046875 0.265625 -2.5625z" fill-rule="nonzero"/><path fill="#000000" fill-opacity="0.0" d="m308.5013 365.3937l45.13385 0l0 42.015747l-45.13385 0z" fill-rule="evenodd"/><path fill="#000000" d="m326.31012 384.1262q0.796875 0 1.515625 0.265625q0.71875 0.265625 1.265625 0.78125q0.546875 0.5 0.859375 1.25q0.3125 0.734375 0.3125 1.6875q0 0.921875 -0.34375 1.71875q-0.328125 0.78125 -0.9375 1.375q-0.59375 0.59375 -1.4375 0.9375q-0.84375 0.328125 -1.875 0.328125q-1.0 0 -1.8125 -0.328125q-0.8125 -0.328125 -1.40625 -0.90625q-0.578125 -0.59375 -0.890625 -1.4375q-0.3125 -0.859375 -0.3125 -1.890625q0 -0.875 0.390625 -1.859375q0.40625 -1.0 1.25 -2.140625l3.390625 -4.5625q0.125 -0.171875 0.359375 -0.28125q0.234375 -0.125 0.53125 -0.125l1.46875 0l-4.625 5.875q0.46875 -0.328125 1.046875 -0.5q0.578125 -0.1875 1.25 -0.1875zm-3.453125 4.0625q0 0.640625 0.1875 1.171875q0.1875 0.53125 0.546875 0.921875q0.359375 0.375 0.875 0.59375q0.515625 0.203125 1.1875 0.203125q0.671875 0 1.203125 -0.203125q0.546875 -0.21875 0.921875 -0.59375q0.390625 -0.390625 0.59375 -0.90625q0.21875 -0.53125 0.21875 -1.140625q0 -0.65625 -0.203125 -1.1875q-0.203125 -0.53125 -0.578125 -0.890625q-0.375 -0.375 -0.90625 -0.5625q-0.515625 -0.203125 -1.140625 -0.203125q-0.671875 0 -1.21875 0.234375q-0.53125 0.21875 -0.90625 0.609375q-0.375 0.390625 -0.578125 0.90625q-0.203125 0.5 -0.203125 1.046875zm18.476868 -2.546875q0 1.75 -0.390625 3.03125q-0.375 1.28125 -1.03125 2.125q-0.640625 0.828125 -1.53125 1.25q-0.890625 0.40625 -1.90625 0.40625q-1.03125 0 -1.921875 -0.40625q-0.875 -0.421875 -1.53125 -1.25q-0.640625 -0.84375 -1.015625 -2.125q-0.375 -1.28125 -0.375 -3.03125q0 -1.765625 0.375 -3.046875q0.375 -1.28125 1.015625 -2.125q0.65625 -0.859375 1.53125 -1.265625q0.890625 -0.40625 1.921875 -0.40625q1.015625 0 1.90625 0.40625q0.890625 0.40625 1.53125 1.265625q0.65625 0.84375 1.03125 2.125q0.390625 1.28125 0.390625 3.046875zm-1.734375 0q0 -1.53125 -0.265625 -2.5625q-0.25 -1.046875 -0.6875 -1.6875q-0.421875 -0.640625 -1.0 -0.90625q-0.5625 -0.28125 -1.171875 -0.28125q-0.625 0 -1.203125 0.28125q-0.5625 0.265625 -0.984375 0.90625q-0.421875 0.640625 -0.6875 1.6875q-0.25 1.03125 -0.25 2.5625q0 1.515625 0.25 2.5625q0.265625 1.03125 0.6875 1.671875q0.421875 0.625 0.984375 0.90625q0.578125 0.265625 1.203125 0.265625q0.609375 0 1.171875 -0.265625q0.578125 -0.28125 1.0 -0.90625q0.4375 -0.640625 0.6875 -1.671875q0.265625 -1.046875 0.265625 -2.5625z" fill-rule="nonzero"/><path fill="#000000" fill-opacity="0.0" d="m557.57745 363.51968l57.574768 0l0 42.015747l-57.574768 0z" fill-rule="evenodd"/><path fill="#000000" d="m572.8057 389.17407l2.875 0l0 -9.109375q0 -0.421875 0.03125 -0.84375l-2.390625 2.046875q-0.09375 0.078125 -0.1875 0.109375q-0.09375 0.03125 -0.171875 0.03125q-0.140625 0 -0.25 -0.0625q-0.109375 -0.0625 -0.171875 -0.140625l-0.515625 -0.71875l3.96875 -3.4375l1.34375 0l0 12.125l2.640625 0l0 1.265625l-7.171875 0l0 -1.265625zm14.211304 -6.921875q0.796875 0 1.515625 0.265625q0.71875 0.265625 1.265625 0.78125q0.546875 0.5 0.859375 1.25q0.3125 0.734375 0.3125 1.6875q0 0.921875 -0.34375 1.71875q-0.328125 0.78125 -0.9375 1.375q-0.59375 0.59375 -1.4375 0.9375q-0.84375 0.328125 -1.875 0.328125q-1.0 0 -1.8125 -0.328125q-0.8125 -0.328125 -1.40625 -0.90625q-0.578125 -0.59375 -0.890625 -1.4375q-0.3125 -0.859375 -0.3125 -1.890625q0 -0.875 0.390625 -1.859375q0.40625 -1.0 1.25 -2.140625l3.390625 -4.5625q0.125 -0.171875 0.359375 -0.28125q0.234375 -0.125 0.53125 -0.125l1.46875 0l-4.625 5.875q0.46875 -0.328125 1.046875 -0.5q0.578125 -0.1875 1.25 -0.1875zm-3.453125 4.0625q0 0.640625 0.1875 1.171875q0.1875 0.53125 0.546875 0.921875q0.359375 0.375 0.875 0.59375q0.515625 0.203125 1.1875 0.203125q0.671875 0 1.203125 -0.203125q0.546875 -0.21875 0.921875 -0.59375q0.390625 -0.390625 0.59375 -0.90625q0.21875 -0.53125 0.21875 -1.140625q0 -0.65625 -0.203125 -1.1875q-0.203125 -0.53125 -0.578125 -0.890625q-0.375 -0.375 -0.90625 -0.5625q-0.515625 -0.203125 -1.140625 -0.203125q-0.671875 0 -1.21875 0.234375q-0.53125 0.21875 -0.90625 0.609375q-0.375 0.390625 -0.578125 0.90625q-0.203125 0.5 -0.203125 1.046875zm18.476868 -2.546875q0 1.75 -0.390625 3.03125q-0.375 1.28125 -1.03125 2.125q-0.640625 0.828125 -1.53125 1.25q-0.890625 0.40625 -1.90625 0.40625q-1.03125 0 -1.921875 -0.40625q-0.875 -0.421875 -1.53125 -1.25q-0.640625 -0.84375 -1.015625 -2.125q-0.375 -1.28125 -0.375 -3.03125q0 -1.765625 0.375 -3.046875q0.375 -1.28125 1.015625 -2.125q0.65625 -0.859375 1.53125 -1.265625q0.890625 -0.40625 1.921875 -0.40625q1.015625 0 1.90625 0.40625q0.890625 0.40625 1.53125 1.265625q0.65625 0.84375 1.03125 2.125q0.390625 1.28125 0.390625 3.046875zm-1.734375 0q0 -1.53125 -0.265625 -2.5625q-0.25 -1.046875 -0.6875 -1.6875q-0.421875 -0.640625 -1.0 -0.90625q-0.5625 -0.28125 -1.171875 -0.28125q-0.625 0 -1.203125 0.28125q-0.5625 0.265625 -0.984375 0.90625q-0.421875 0.640625 -0.6875 1.6875q-0.25 1.03125 -0.25 2.5625q0 1.515625 0.25 2.5625q0.265625 1.03125 0.6875 1.671875q0.421875 0.625 0.984375 0.90625q0.578125 0.265625 1.203125 0.265625q0.609375 0 1.171875 -0.265625q0.578125 -0.28125 1.0 -0.90625q0.4375 -0.640625 0.6875 -1.671875q0.265625 -1.046875 0.265625 -2.5625z" fill-rule="nonzero"/><path fill="#000000" fill-opacity="0.0" d="m685.20996 360.52493l57.57483 0l0 42.015747l-57.57483 0z" fill-rule="evenodd"/><path fill="#000000" d="m703.3758 373.92932q0.84375 0 1.578125 0.25q0.734375 0.25 1.265625 0.734375q0.546875 0.484375 0.859375 1.171875q0.3125 0.6875 0.3125 1.5625q0 0.75 -0.234375 1.390625q-0.21875 0.625 -0.609375 1.21875q-0.375 0.578125 -0.875 1.125q-0.5 0.546875 -1.0625 1.109375l-3.515625 3.59375q0.375 -0.09375 0.75 -0.15625q0.390625 -0.0625 0.75 -0.0625l4.46875 0q0.28125 0 0.4375 0.15625q0.15625 0.15625 0.15625 0.421875l0 1.0l-8.921875 0l0 -0.5625q0 -0.1875 0.0625 -0.375q0.078125 -0.1875 0.234375 -0.34375l4.28125 -4.296875q0.53125 -0.546875 0.96875 -1.046875q0.4375 -0.5 0.75 -1.0q0.3125 -0.5 0.484375 -1.015625q0.171875 -0.515625 0.171875 -1.109375q0 -0.578125 -0.1875 -1.015625q-0.1875 -0.453125 -0.515625 -0.734375q-0.328125 -0.296875 -0.765625 -0.4375q-0.4375 -0.15625 -0.9375 -0.15625q-0.5 0 -0.9375 0.15625q-0.421875 0.140625 -0.765625 0.40625q-0.328125 0.265625 -0.5625 0.640625q-0.21875 0.359375 -0.3125 0.796875q-0.078125 0.265625 -0.234375 0.390625q-0.140625 0.125 -0.375 0.125q-0.046875 0 -0.109375 0q-0.046875 -0.015625 -0.109375 -0.015625l-0.875 -0.15625q0.140625 -0.90625 0.515625 -1.609375q0.375 -0.71875 0.9375 -1.1875q0.578125 -0.46875 1.3125 -0.71875q0.75 -0.25 1.609375 -0.25zm7.8831177 12.25l2.875 0l0 -9.109375q0 -0.421875 0.03125 -0.84375l-2.390625 2.046875q-0.09375 0.078125 -0.1875 0.109375q-0.09375 0.03125 -0.171875 0.03125q-0.140625 0 -0.25 -0.0625q-0.109375 -0.0625 -0.171875 -0.140625l-0.515625 -0.71875l3.96875 -3.4375l1.34375 0l0 12.125l2.640625 0l0 1.265625l-7.171875 0l0 -1.265625zm18.414429 -5.40625q0 1.75 -0.390625 3.03125q-0.375 1.28125 -1.03125 2.125q-0.640625 0.828125 -1.53125 1.25q-0.890625 0.40625 -1.90625 0.40625q-1.03125 0 -1.921875 -0.40625q-0.875 -0.421875 -1.53125 -1.25q-0.640625 -0.84375 -1.015625 -2.125q-0.375 -1.28125 -0.375 -3.03125q0 -1.765625 0.375 -3.046875q0.375 -1.28125 1.015625 -2.125q0.65625 -0.859375 1.53125 -1.265625q0.890625 -0.40625 1.921875 -0.40625q1.015625 0 1.90625 0.40625q0.890625 0.40625 1.53125 1.265625q0.65625 0.84375 1.03125 2.125q0.390625 1.28125 0.390625 3.046875zm-1.734375 0q0 -1.53125 -0.265625 -2.5625q-0.25 -1.046875 -0.6875 -1.6875q-0.421875 -0.640625 -1.0 -0.90625q-0.5625 -0.28125 -1.171875 -0.28125q-0.625 0 -1.203125 0.28125q-0.5625 0.265625 -0.984375 0.90625q-0.421875 0.640625 -0.6875 1.6875q-0.25 1.03125 -0.25 2.5625q0 1.515625 0.25 2.5625q0.265625 1.03125 0.6875 1.671875q0.421875 0.625 0.984375 0.90625q0.578125 0.265625 1.203125 0.265625q0.609375 0 1.171875 -0.265625q0.578125 -0.28125 1.0 -0.90625q0.4375 -0.640625 0.6875 -1.671875q0.265625 -1.046875 0.265625 -2.5625z" fill-rule="nonzero"/><path fill="#000000" fill-opacity="0.0" d="m129.18898 5.3018374l584.7874 0l0 348.37793l-584.7874 0z" fill-rule="evenodd"/><path stroke="#000000" stroke-width="3.0" stroke-linejoin="round" stroke-linecap="butt" d="m129.18898 5.3018374l584.7874 0l0 348.37793l-584.7874 0z" fill-rule="evenodd"/></g></svg>